<mxfile host="app.diagrams.net" modified="2024-04-08T05:21:05.335Z" agent="Mozilla/5.0 (Windows NT 10.0; Win64; x64) AppleWebKit/537.36 (KHTML, like Gecko) Chrome/123.0.0.0 Safari/537.36" version="24.2.2" etag="DOiYuwe2eo2g68e0zDIM" type="github">
  <diagram name="페이지-1" id="bbNGkUBLXoQ0gXYM1ONw">
    <mxGraphModel>
      <root>
        <mxCell id="0" />
        <mxCell id="1" parent="0" />
      </root>
    </mxGraphModel>
  </diagram>
</mxfile>
